HIERARCHY
ROOT Hips
{
	OFFSET 0.000000 0.000000 0.000000 
	CHANNELS 6 Xposition Yposition Zposition Yrotation Zrotation Xrotation 
	JOINT Lumbar
	{
		OFFSET 0.000000 0.000000 0.000000 
		CHANNELS 3 Zrotation Xrotation Yrotation
		JOINT Neck
		{
			OFFSET 0.000000 0.445665 0.000000 
			CHANNELS 3 Zrotation Xrotation Yrotation
			End Site
			{
				OFFSET 0.000000 0.227535 0.000000 
			}
		}
		JOINT RightShoulder
		{
			OFFSET 0.019635 0.377685 0.194865 
			CHANNELS 3 Zrotation Xrotation Yrotation
			JOINT RightElbow
			{
				OFFSET 0.000000 -0.243375 0.000000 
				CHANNELS 2 Zrotation Yrotation
				JOINT RightWrist
				{
					OFFSET 0.000000 -0.264825 0.000000 
					CHANNELS 2 Zrotation Xrotation
					End Site
					{
						OFFSET 0.006600 -0.176220 0.000990 
					}
				}
			}
		}
		JOINT LeftShoulder
		{
			OFFSET 0.019635 0.377685 -0.194865 
			CHANNELS 3 Zrotation Xrotation Yrotation
			JOINT LeftElbow
			{
				OFFSET 0.000000 -0.243375 0.000000 
				CHANNELS 2 Zrotation Yrotation
				JOINT LeftWrist
				{
					OFFSET 0.000000 -0.264825 0.000000 
					CHANNELS 2 Zrotation Xrotation
					End Site
					{
						OFFSET 0.006600 -0.176220 -0.000990 
					}
				}
			}
		}
	}
	JOINT RightHip
	{
		OFFSET 0.052140 -0.069960 0.075570 
		CHANNELS 3 Zrotation Xrotation Yrotation
		JOINT RightKnee
		{
			OFFSET 0.000000 -0.402270 0.000000 
			CHANNELS 1 Zrotation
			JOINT RightAnkle
			{
				OFFSET 0.000000 -0.404085 0.000000 
				CHANNELS 3 Zrotation Xrotation Yrotation
				End Site
				{
					OFFSET 0.204105 -0.089430 0.008415 
				}
			}
		}
	}
	JOINT LeftHip
	{
		OFFSET 0.052140 -0.069960 -0.075570 
		CHANNELS 3 Zrotation Xrotation Yrotation
		JOINT LeftKnee
		{
			OFFSET 0.000000 -0.402270 0.000000 
			CHANNELS 1 Zrotation
			JOINT LeftAnkle
			{
				OFFSET 0.000000 -0.404085 0.000000 
				CHANNELS 3 Zrotation Xrotation Yrotation
				End Site
				{
					OFFSET 0.204105 -0.089430 -0.008415 
				}
			}
		}
	}
}
MOTION
Frames: 14
Frame Time: 0.02
-0 0.95578 0 139.38725 0 -5.48459 4.82365 5.40278 -1.49017 -43.90502 1.99564 -0.81471 37.91651 -14.20409 7.44061 10.47775 82.89915 -1.49205 -3.63991 37.1256 13.02963 -14.49919 11.2129 -81.33223 -3.95802 3.61112 -5.96822 7.85234 4.7188 -5.51838 -10.98516 -2.70211 -7.434 -11.83643 4.838 20.2316 0.8249 -4.72022 3.12073 5.1446
0.00025 0.95574 -0.00019 139.35623 0 -5.52453 4.776 5.40494 -1.55944 -43.85293 1.99772 -0.79544 37.90209 -14.19282 7.53852 10.50763 82.89929 -1.50886 -3.65861 37.09499 13.05265 -14.46549 11.20789 -81.29062 -3.95522 3.62035 -5.8182 7.91226 4.79374 -5.79813 -10.9049 -2.69388 -7.44405 -11.8754 4.89788 20.03441 0.87903 -4.72223 3.13482 5.2715
0.00051 0.95569 -0.00039 139.32657 0 -5.5643 4.72779 5.40628 -1.62935 -43.80062 2.00054 -0.77596 37.8871 -14.18182 7.63681 10.53752 82.89864 -1.52557 -3.6773 37.0642 13.07559 -14.43164 11.20283 -81.24913 -3.95246 3.62953 -5.66878 7.97345 4.87954 -6.07734 -10.8249 -2.6825 -7.46624 -11.91421 4.95822 19.83687 0.93325 -4.7246 3.14866 5.39773
0.00077 0.95564 -0.00061 139.30169 0 -5.60409 4.67843 5.40569 -1.70226 -43.74833 2.00587 -0.75635 37.87126 -14.17139 7.73713 10.56765 82.89424 -1.54203 -3.6962 37.03325 13.09824 -14.39809 11.19752 -81.20753 -3.94968 3.63825 -5.52098 8.04015 5.01719 -6.35605 -10.74656 -2.65826 -7.54407 -11.95274 5.02052 19.63415 0.98786 -4.72802 3.16163 5.52459
0.00097 0.95559 -0.00073 139.25103 0 -5.64414 4.63707 5.41695 -1.75896 -43.69768 1.99738 -0.73852 37.86182 -14.15744 7.82614 10.59638 82.90904 -1.55982 -3.71407 37.00417 13.12223 -14.36444 11.19354 -81.1663 -3.94682 3.64895 -5.3654 8.07744 4.88943 -6.63614 -10.66107 -2.7019 -7.33555 -11.99273 5.07187 19.45662 1.03984 -4.7254 3.17915 5.65057
0.00131 0.95555 -0.00107 139.25527 0 -5.68337 4.57753 5.40202 -1.85012 -43.64243 2.01848 -0.71619 37.83758 -14.15127 7.93934 10.62813 82.88366 -1.57477 -3.73406 36.97048 13.14348 -14.33001 11.18676 -81.12447 -3.94426 3.65577 -5.22589 8.17707 5.31685 -6.91392 -10.58966 -2.60211 -7.72717 -12.0296 5.14668 19.22751 1.09771 -4.73588 3.18707 5.77663
0.00199 0.95553 -0.00198 139.41406 0 -5.72337 4.47486 5.32103 -2.04053 -43.58207 2.12174 -0.68664 37.78093 -14.16462 8.12255 10.6688 82.73857 -1.58203 -3.76091 36.92844 13.15664 -14.3005 11.17166 -81.07829 -3.94148 3.64912 -5.13334 8.45672 7.40015 -7.18489 -10.56662 -2.08785 -9.89731 -12.0585 5.28784 18.83148 1.17086 -4.78138 3.16752 5.92069
0.00282 0.95552 -0.00312 139.62786 0 -5.76202 4.35225 5.21233 -2.26514 -43.51551 2.25484 -0.65146 37.70767 -14.18628 8.33013 10.71249 82.55436 -1.58636 -3.78977 36.88088 13.16715 -14.26867 11.15382 -81.03194 -3.93916 3.63904 -5.05657 8.79819 10.0241 -7.4536 -10.55632 -1.43206 -12.65381 -12.0841 5.45258 18.38743 1.25011 -4.84036 3.1384 6.06183
0.00361 0.9555 -0.00418 139.81487 0 -5.79939 4.23425 5.11216 -2.47175 -43.44685 2.37427 -0.61557 37.63652 -14.20533 8.52433 10.75446 82.39359 -1.59203 -3.81706 36.83295 13.17924 -14.23348 11.13761 -80.98733 -3.93739 3.63233 -4.97058 9.10662 12.323 -7.72437 -10.53359 -0.85178 -15.06553 -12.11089 5.60563 17.98079 1.32745 -4.89398 3.11432 6.1928
0.00427 0.9555 -0.00514 140.00965 0 -5.84481 4.13578 5.02926 -2.68889 -43.39927 2.4945 -0.59393 37.5886 -14.21912 8.72694 10.79783 82.209 -1.5979 -3.84702 36.79719 13.18977 -14.2177 11.11979 -80.93567 -3.93261 3.61802 -4.89266 9.43588 14.95485 -7.99206 -10.53763 -0.22251 -17.80601 -12.13921 5.76261 17.50847 1.4016 -4.9444 3.08751 6.37189
0.00524 0.95547 -0.00636 140.20099 0 -5.87307 3.99101 4.90369 -2.892 -43.30591 2.61969 -0.54068 37.48803 -14.24624 8.91942 10.83907 82.06464 -1.60235 -3.87202 36.73474 13.20292 -14.15997 11.10466 -80.89867 -3.93397 3.61866 -4.80242 9.73647 17.02381 -8.264 -10.49055 0.33604 -20.00287 -12.16325 5.91721 17.16145 1.48327 -5.00466 3.0639 6.45055
0.00702 0.95534 -0.0082 140.37211 0 -5.85477 3.73058 4.66801 -3.0498 -43.09105 2.75532 -0.4068 37.24874 -14.30485 9.06457 10.87307 82.04175 -1.6065 -3.88166 36.60039 13.22388 -13.99523 11.09786 -80.90219 -3.95427 3.66217 -4.66791 9.94248 17.38827 -8.56214 -10.28529 0.68453 -20.53991 -12.17877 6.05781 17.17298 1.58899 -5.08897 3.05349 6.24832
0.00911 0.95517 -0.01031 140.53731 0 -5.81911 3.42275 4.39023 -3.19174 -42.82963 2.89415 -0.24047 36.95661 -14.37725 9.20128 10.90493 82.06051 -1.60886 -3.88643 36.43929 13.24761 -13.78691 11.09387 -80.9205 -3.98041 3.72077 -4.52167 10.11752 17.17093 -8.86199 -10.03069 0.95332 -20.51239 -12.18954 6.1955 17.31218 1.70101 -5.18263 3.0463 5.94589
0.01108 0.95503 -0.01231 140.7035 0 -5.79116 3.13202 4.13103 -3.34007 -42.58734 3.02889 -0.08537 36.6869 -14.44541 9.35053 10.93819 82.05972 -1.61002 -3.8942 36.29014 13.27008 -13.59295 11.0884 -80.93203 -4.00243 3.77188 -4.38491 10.30702 17.23179 -9.15202 -9.8079 1.24555 -20.75358 -12.20093 6.33565 17.39225 1.80722 -5.27198 3.03628 5.69216
